<?xml version="1.0" standalone="no"?>
<!DOCTYPE svg PUBLIC "-//W3C//DTD SVG 20010904//EN"
 "http://www.w3.org/TR/2001/REC-SVG-20010904/DTD/svg10.dtd">
<svg version="1.0" xmlns="http://www.w3.org/2000/svg"
 width="5000.000000pt" height="5000.000000pt" viewBox="0 0 5000.000000 5000.000000"
 preserveAspectRatio="xMidYMid meet">

<g transform="translate(0.000000,5000.000000) scale(0.100000,-0.100000)"
fill="#000000" stroke="none">
<path d="M24460 41613 c-2584 -80 -5091 -749 -7355 -1963 -1805 -967 -3419
-2264 -4769 -3830 -485 -562 -1015 -1272 -1382 -1850 -251 -394 -410 -665
-670 -1136 -18 -34 -31 -64 -27 -68 3 -3 1 -6 -5 -6 -6 0 -14 -10 -18 -22 -3
-12 -20 -43 -36 -70 -16 -26 -26 -53 -22 -59 4 -7 3 -9 -3 -6 -11 7 -86 -140
-78 -153 3 -5 -1 -12 -8 -17 -20 -12 -39 -52 -31 -65 4 -6 3 -8 -3 -5 -14 9
-54 -78 -41 -91 6 -6 6 -12 -3 -17 -8 -5 -10 -4 -5 3 4 7 3 12 -2 12 -16 0
-113 -223 -108 -248 3 -13 1 -20 -5 -17 -5 4 -7 11 -4 16 4 5 4 9 1 9 -3 0
-13 -14 -22 -31 -11 -23 -12 -29 -2 -23 8 4 6 0 -3 -12 -21 -25 -44 -68 -32
-61 11 7 11 -38 0 -49 -11 -11 -8 -26 3 -19 6 3 10 4 10 1 0 -3 -9 -10 -20
-16 -18 -10 -19 -8 -10 14 5 13 6 27 2 32 -4 4 -2 4 4 1 6 -3 11 0 11 8 0 15
-16 22 -18 8 -3 -33 -12 -59 -34 -93 -14 -22 -25 -44 -25 -50 0 -5 -9 -24 -20
-42 -24 -40 -25 -48 -2 -48 14 0 15 -2 2 -9 -8 -6 -17 -8 -21 -5 -4 2 -12 -11
-19 -29 -7 -17 -20 -48 -31 -68 -17 -33 -17 -36 -1 -54 16 -17 16 -17 -1 -12
-10 4 -16 3 -13 -2 3 -5 -1 -14 -9 -21 -7 -6 -11 -19 -8 -27 4 -10 2 -14 -5
-9 -6 3 -13 2 -16 -3 -7 -11 20 -9 31 2 4 5 15 -2 25 -15 10 -13 18 -18 18
-12 0 5 -9 20 -20 32 -25 26 -25 32 -1 27 12 -2 18 2 17 13 -1 13 9 18 42 20
37 3 42 1 42 -17 0 -18 7 -21 43 -22 23 -1 45 -1 50 0 11 2 9 -17 -3 -24 -5
-3 -10 -12 -10 -18 0 -7 4 -6 10 3 7 11 10 11 10 2 0 -8 5 -10 12 -6 8 5 9 2
5 -10 -4 -10 -7 -21 -7 -24 0 -4 -5 0 -11 8 -8 12 -9 12 -8 -5 4 -32 -10 -63
-32 -70 -22 -7 -59 2 -59 16 0 5 -18 9 -40 9 -22 0 -40 5 -40 10 0 6 -17 10
-38 10 -21 0 -44 6 -51 13 -10 8 -12 8 -7 0 3 -6 2 -14 -4 -18 -13 -8 -13 -25
1 -25 5 0 8 4 4 9 -3 5 -1 12 4 15 20 13 4 -24 -19 -44 -14 -12 -19 -19 -13
-15 7 3 13 2 13 -3 0 -5 6 -9 14 -9 8 0 13 8 11 19 -3 15 3 18 41 18 24 0 44
-4 44 -10 0 -5 18 -10 40 -10 37 0 45 -7 41 -32 0 -5 4 -8 10 -8 5 0 7 -4 4
-10 -3 -5 -1 -10 5 -10 7 0 9 7 6 15 -3 8 -9 22 -12 31 -6 14 4 15 55 5 2 -1
-3 -9 -12 -19 -10 -10 -14 -22 -10 -25 9 -9 -27 -48 -39 -41 -4 3 -7 0 -6 -8
2 -9 -11 -14 -39 -16 -26 -2 -43 1 -43 7 0 6 -18 11 -40 11 -37 0 -46 7 -41
34 1 5 -5 4 -14 -4 -13 -11 -18 -10 -34 4 -17 15 -19 16 -25 1 -3 -9 -6 -25
-6 -36 0 -10 -5 -19 -11 -19 -5 0 -8 -4 -5 -9 4 -5 2 -11 -4 -13 -6 -2 -12
-13 -14 -25 -4 -18 -1 -21 17 -18 21 4 21 4 3 -10 -10 -8 -22 -12 -27 -10 -4
3 -11 0 -15 -6 -4 -8 -3 -9 4 -5 7 4 12 1 12 -6 0 -9 2 -10 8 -2 5 8 11 7 22
-4 13 -14 12 -15 -2 -10 -8 4 -21 1 -28 -5 -10 -9 -11 -9 -6 1 4 6 3 12 -3 12
-16 0 -33 -39 -26 -60 4 -11 11 -20 16 -20 6 0 7 5 3 12 -4 7 -3 8 4 4 7 -4
12 -11 12 -17 0 -13 -38 -11 -42 3 -3 7 -7 6 -11 -5 -3 -9 -2 -17 4 -17 6 0 7
-5 4 -10 -4 -6 -12 -7 -18 -4 -7 4 -9 4 -5 -1 5 -5 20 -9 35 -11 42 -3 115
-24 130 -36 7 -5 19 -8 26 -5 8 3 20 -3 27 -13 8 -11 17 -17 22 -14 11 7 10 2
-9 -42 -17 -41 -20 -47 -22 -65 0 -5 -5 -7 -11 -4 -5 3 -7 0 -5 -7 8 -19 -39
-140 -50 -131 -4 5 -5 3 -2 -3 6 -11 -51 -197 -69 -226 -5 -7 -10 -20 -11 -28
-9 -49 -142 -428 -148 -422 -5 4 -5 2 -2 -5 4 -6 -24 -116 -63 -244 -38 -129
-70 -239 -70 -246 0 -7 -5 -13 -11 -13 -5 0 -8 -4 -5 -8 3 -5 -13 -73 -35
-153 -22 -79 -42 -155 -45 -169 -3 -14 -23 -95 -44 -180 -422 -1683 -570
-3527 -424 -5300 205 -2508 981 -4920 2275 -7075 1364 -2271 3246 -4173 5499
-5557 686 -421 1563 -872 2225 -1143 592 -242 1012 -394 1535 -555 2126 -654
4405 -864 6650 -614 2156 240 4247 911 6145 1971 1098 613 2092 1330 3055
2201 275 249 856 830 1098 1097 1197 1326 2149 2788 2867 4406 207 465 376
903 555 1436 48 144 91 259 96 255 4 -4 4 -2 0 5 -3 7 19 97 50 200 86 291
103 348 104 353 0 3 18 73 40 155 22 83 56 216 76 298 20 83 41 147 47 147 9
0 9 2 1 8 -8 5 -8 14 -1 32 5 14 11 34 12 45 11 76 17 102 30 122 11 16 12 23
2 26 -9 4 -9 6 0 6 7 1 10 8 7 16 -3 8 -2 20 2 27 9 14 10 22 19 87 9 67 21
83 58 79 22 -2 35 -10 42 -26 9 -20 16 -23 51 -20 36 3 40 1 36 -18 -2 -12 2
-25 9 -29 8 -6 10 -4 4 5 -8 13 7 12 48 -5 13 -6 17 -2 18 16 3 43 5 54 14 73
6 13 5 21 -4 24 -8 3 -7 8 6 17 15 11 16 15 3 31 -9 10 -10 15 -3 11 8 -5 15
1 19 18 7 30 -2 59 -16 50 -6 -4 -7 -11 -4 -17 5 -7 2 -8 -5 -4 -9 6 -8 13 5
27 9 10 13 19 8 19 -5 0 -1 7 10 15 17 13 21 26 31 90 1 11 5 27 9 36 4 9 6
20 5 25 -1 5 1 17 6 27 4 9 5 26 2 37 -3 11 -1 20 5 20 5 0 9 12 8 28 -1 15
-1 30 0 35 6 18 19 77 25 112 3 17 10 57 16 90 6 34 9 65 8 70 -1 6 0 17 4 25
14 37 85 596 117 920 54 564 73 979 74 1605 0 932 -58 1703 -195 2590 -421
2714 -1513 5288 -3172 7475 -1654 2181 -3808 3920 -6271 5065 -2213 1028
-4630 1556 -7066 1543 -206 -1 -413 -3 -460 -5z m1380 -1434 c3600 -146 6580
-1250 7275 -2694 109 -226 148 -399 148 -650 0 -250 -38 -412 -148 -643 -220
-458 -687 -903 -1355 -1287 -180 -104 -553 -288 -775 -382 -1011 -428 -2288
-744 -3661 -905 l-192 -22 -219 215 c-617 602 -1140 1114 -1521 1487 l-423
415 -117 -114 c-246 -240 -954 -931 -1120 -1094 -105 -103 -182 -171 -195
-172 -12 -1 -60 14 -107 33 -47 18 -100 37 -117 40 -18 4 -33 10 -33 15 0 5
-11 9 -24 9 -14 0 -28 5 -31 10 -3 6 -15 10 -26 10 -10 0 -27 4 -37 9 -9 5
-64 26 -122 46 -138 49 -160 58 -160 67 0 5 -8 8 -17 8 -17 0 -210 66 -278 95
-16 7 -59 22 -95 34 -36 12 -74 25 -85 30 -42 18 -183 70 -268 97 -49 16 -91
32 -93 36 -3 5 -14 8 -25 8 -10 0 -19 4 -19 9 0 5 -15 12 -34 15 -18 4 -62 18
-97 32 -35 14 -80 30 -99 35 -19 6 -44 14 -55 19 -43 19 -94 39 -180 70 -49
18 -103 38 -120 45 -16 7 -61 23 -100 36 -38 13 -74 26 -80 29 -5 4 -32 13
-60 20 -27 8 -52 17 -55 20 -3 4 -32 16 -65 27 -33 12 -82 30 -110 41 -27 11
-115 42 -195 68 -80 27 -147 52 -150 55 -3 4 -21 10 -40 14 -19 4 -41 11 -50
16 -44 24 -106 49 -121 49 -10 0 -21 5 -24 10 -3 6 -15 10 -26 10 -10 0 -19 3
-19 8 0 4 -25 13 -55 20 -30 7 -67 19 -82 27 -15 8 -36 15 -45 15 -9 0 -19 4
-23 9 -3 5 -20 13 -38 16 -17 4 -56 18 -84 31 -29 13 -65 26 -80 30 -16 4 -32
10 -38 14 -5 4 -39 17 -75 29 -36 12 -73 26 -82 31 -10 6 -27 10 -37 10 -11 0
-35 8 -53 19 -18 10 -54 24 -80 30 -26 6 -62 19 -80 29 -18 10 -55 24 -83 31
-52 13 -61 17 -135 49 -25 11 -88 34 -140 51 -52 18 -104 37 -115 41 -11 5
-47 19 -80 31 -33 12 -64 25 -69 30 -6 5 -18 9 -28 9 -10 0 -18 5 -18 10 0 6
-10 10 -21 10 -27 0 -104 25 -189 60 -36 15 -81 33 -100 40 -19 6 -44 16 -55
20 -11 5 -45 16 -75 25 -52 16 -79 27 -158 61 -18 8 -41 14 -50 14 -10 0 -22
4 -28 8 -5 5 -40 19 -79 32 -38 13 -85 32 -103 42 -18 10 -41 18 -51 18 -11 0
-57 15 -103 34 -45 18 -130 51 -188 71 -58 21 -118 43 -135 50 -16 7 -48 18
-70 25 -22 6 -54 18 -72 26 -17 8 -40 14 -52 14 -12 0 -21 4 -21 9 0 5 -10 11
-22 14 -32 7 -115 36 -163 58 -22 10 -55 21 -72 24 -18 4 -33 10 -33 15 0 4
-17 11 -37 15 -21 4 -42 10 -48 14 -18 14 -162 61 -185 61 -22 0 -22 2 -15 93
56 763 698 1462 1880 2046 1457 721 3629 1172 5880 1221 397 9 1056 4 1405
-11z m-15933 -8238 c0 -11 -7 -17 -14 -14 -9 4 -9 8 0 19 16 17 16 17 14 -5z
m126 -131 c3 6 5 6 3 -1 -4 -21 -32 -18 -32 3 0 17 2 18 12 3 8 -10 14 -12 17
-5z m-240 -33 c3 -8 -1 -14 -8 -14 -7 0 -11 6 -8 14 3 7 6 13 8 13 2 0 5 -6 8
-13z m41 -16 c-2 -3 -12 3 -22 13 -16 17 -16 18 5 5 12 -7 20 -15 17 -18z
m201 10 c-9 -8 -36 -10 -30 -2 2 4 11 8 20 8 8 0 13 -3 10 -6z m-285 -86 c-7
-9 -15 -13 -19 -10 -3 3 1 10 9 15 21 14 24 12 10 -5z m244 -17 c-3 -5 -10 -6
-15 -3 -5 4 -9 1 -9 -4 0 -6 -4 -11 -8 -11 -5 0 -9 6 -9 13 0 7 11 13 23 13
12 0 20 -4 18 -8z m-246 -50 c-2 -6 -14 -12 -26 -13 -11 -1 -19 2 -16 7 4 5
12 7 20 4 8 -3 14 -1 14 4 0 6 3 10 6 10 3 0 4 -5 2 -12z m187 -8 c-5 -15 -2
-20 12 -21 14 0 15 -2 3 -6 -8 -3 -18 -11 -22 -17 -4 -6 -6 3 -4 19 5 44 6 45
12 45 3 0 2 -9 -1 -20z m-258 -82 c-3 -8 -6 -5 -6 6 -1 11 2 17 5 13 3 -3 4
-12 1 -19z m245 -26 c-7 -2 -10 -8 -6 -13 3 -5 -4 -21 -15 -35 -11 -15 -18
-30 -15 -35 3 -5 -3 -9 -12 -9 -14 0 -15 3 -6 12 18 18 15 27 -8 23 -20 -4
-20 -3 -3 25 16 28 18 29 36 12 16 -14 19 -14 17 -2 -4 29 0 41 12 34 9 -6 9
-9 0 -12z m-248 -8 c5 -14 4 -15 -9 -4 -17 14 -19 20 -6 20 5 0 12 -7 15 -16z
m32 -383 c-8 -13 4 -42 15 -35 5 3 7 10 4 15 -4 5 -2 9 3 9 6 0 13 -7 16 -16
3 -8 2 -13 -3 -10 -5 3 -20 -5 -35 -19 -26 -24 -37 -21 -13 4 9 10 9 15 1 18
-14 5 -6 43 8 43 5 0 7 -4 4 -9z m24 -79 c0 -5 -7 -9 -15 -9 -8 0 -12 4 -9 9
3 4 9 8 15 8 5 0 9 -4 9 -8z m-240 -30 c0 -11 -3 -12 -13 -3 -8 6 -17 8 -20 4
-4 -3 -7 -1 -7 5 0 6 9 10 20 9 11 -1 20 -8 20 -15z m28 -17 c-3 -30 -11 -23
-13 9 0 14 3 22 7 20 4 -3 7 -16 6 -29z m175 -40 c-7 -21 -13 -19 -13 6 0 11
4 18 10 14 5 -3 7 -12 3 -20z m-90 8 c-7 -2 -19 -2 -25 0 -7 3 -2 5 12 5 14 0
19 -2 13 -5z m47 -33 c0 -5 -4 -10 -10 -10 -5 0 -10 5 -10 10 0 6 5 10 10 10
6 0 10 -4 10 -10z m15 -40 c3 -6 -1 -7 -9 -4 -18 7 -21 14 -7 14 6 0 13 -4 16
-10z m31485 -8690 c0 -5 -5 -10 -11 -10 -5 0 -7 5 -4 10 3 6 8 10 11 10 2 0 4
-4 4 -10z m-38 -172 c-6 -6 -7 0 -4 19 5 21 7 23 10 9 2 -10 0 -22 -6 -28z
m88 -4 c0 -8 -4 -12 -10 -9 -5 3 -10 10 -10 16 0 5 5 9 10 9 6 0 10 -7 10 -16z
m105 -24 c3 -5 1 -10 -4 -10 -6 0 -11 5 -11 10 0 6 2 10 4 10 3 0 8 -4 11 -10z
m25 -26 c0 -8 -5 -12 -10 -9 -6 4 -8 11 -5 16 9 14 15 11 15 -7z m-20 -56 c0
-9 4 -8 10 2 6 9 10 10 10 3 0 -19 -17 -24 -30 -8 -9 10 -9 15 -1 15 6 0 11
-6 11 -12z m-213 -20 c-3 -8 -6 -5 -6 6 -1 11 2 17 5 13 3 -3 4 -12 1 -19z m2
-72 c-1 -19 -2 -19 -6 -2 -4 15 -7 16 -14 5 -6 -10 -8 -6 -7 13 2 21 5 24 15
16 7 -6 12 -20 12 -32z m19 -38 c-1 -42 -4 -55 -8 -38 -6 23 -2 100 6 100 1 0
2 -28 2 -62z m-30 -24 c-3 -16 -4 -15 -18 1 -9 11 -10 16 -2 11 8 -5 12 -1 13
11 0 10 3 13 6 6 2 -7 3 -20 1 -29z m-19 -44 c0 -10 -3 -8 -9 5 -12 27 -12 43
0 25 5 -8 9 -22 9 -30z m199 -127 c-2 -9 -10 -19 -18 -21 -13 -5 -13 -3 0 13
9 11 10 16 3 11 -7 -4 -13 -2 -13 3 0 6 7 11 16 11 9 0 14 -7 12 -17z m-17514
-5198 c8 -9 19 -15 23 -14 15 4 63 -13 63 -22 0 -5 7 -9 15 -9 13 0 39 -12 65
-28 2 -2 -2 -8 -10 -13 -12 -8 -9 -9 10 -8 32 3 80 -11 80 -22 0 -5 7 -9 15
-9 13 0 39 -12 65 -28 2 -2 -2 -7 -10 -13 -10 -6 -4 -7 19 -3 31 6 33 5 26
-15 -7 -22 4 -28 21 -12 13 13 146 -50 140 -66 -3 -7 -1 -15 4 -18 4 -3 10 0
12 6 2 7 13 9 26 5 24 -8 29 -22 10 -29 -7 -2 -3 -2 9 0 32 5 105 -27 99 -43
-3 -7 -1 -16 4 -19 4 -3 10 0 12 6 2 7 30 -1 76 -22 44 -21 70 -39 68 -46 -3
-7 -1 -15 4 -18 4 -3 10 1 12 7 3 9 26 3 76 -22 44 -21 70 -40 68 -47 -3 -7
-1 -15 4 -18 4 -3 10 1 13 7 3 10 17 6 53 -11 62 -32 61 -30 44 -42 -11 -8 -9
-9 8 -4 17 5 50 -6 113 -36 49 -24 89 -47 89 -51 0 -3 -8 -8 -17 -10 -13 -3
-6 -10 24 -26 42 -22 72 -30 43 -12 -22 14 -3 25 23 12 12 -6 29 -13 37 -15
12 -4 11 -6 -2 -6 -29 -1 -20 -15 23 -34 26 -13 44 -16 52 -9 8 6 26 2 56 -14
24 -13 37 -24 28 -24 -29 0 -18 -14 24 -33 26 -13 44 -16 52 -9 8 6 26 2 56
-14 24 -13 37 -24 28 -24 -29 0 -18 -14 24 -34 29 -13 44 -15 51 -8 8 8 23 5
52 -11 23 -12 43 -25 44 -29 2 -5 10 -8 18 -8 8 0 14 -5 14 -10 0 -7 -6 -7
-19 0 -25 13 -31 13 -31 0 0 -5 7 -10 15 -10 8 0 24 -6 35 -12 15 -10 22 -10
31 -1 9 9 22 7 53 -10 23 -12 43 -25 44 -29 2 -5 10 -8 18 -8 8 0 14 -5 14
-10 0 -7 -6 -7 -19 0 -25 13 -31 13 -31 0 0 -5 7 -10 15 -10 8 0 24 -6 35 -12
14 -9 22 -10 31 -1 8 8 28 2 77 -23 36 -19 68 -37 71 -41 10 -10 -43 9 -92 33
-55 27 -57 28 -57 15 0 -5 12 -14 28 -20 15 -5 63 -30 108 -54 44 -25 91 -48
105 -52 13 -4 37 -16 52 -27 15 -11 35 -17 43 -14 8 3 13 2 10 -3 -3 -5 26
-24 64 -42 39 -18 70 -36 70 -41 0 -4 6 -8 13 -8 18 0 161 -71 165 -81 2 -5
14 -9 26 -9 12 0 26 -4 32 -9 14 -14 366 -191 380 -191 6 0 17 -7 24 -15 7 -8
22 -15 34 -15 11 0 30 -7 40 -15 11 -8 27 -15 37 -15 9 0 19 -7 23 -15 3 -8
12 -12 21 -9 10 4 15 2 13 -7 -2 -8 7 -15 22 -17 20 -2 22 -1 10 8 -11 7 -6 8
20 4 40 -8 51 -15 33 -21 -21 -8 -14 -25 7 -18 23 7 63 -12 54 -27 -11 -18 19
-28 64 -22 26 4 42 2 42 -4 0 -6 -6 -13 -12 -15 -10 -4 -9 -8 2 -16 9 -6 17
-6 20 -1 7 11 70 -10 70 -22 0 -11 -18 -10 -25 2 -8 12 -25 13 -25 2 0 -17 52
-32 91 -26 37 6 56 -7 27 -19 -10 -4 -9 -8 2 -16 9 -6 17 -6 20 -1 7 11 70
-10 70 -22 0 -11 -18 -10 -25 2 -8 12 -25 13 -25 2 0 -5 10 -14 23 -19 19 -9
26 -8 35 6 9 14 11 13 11 -7 1 -13 5 -20 11 -17 6 4 10 -27 10 -84 l0 -91 113
-2 c61 -1 122 -1 134 0 13 0 22 -4 20 -10 -1 -6 15 -15 37 -20 21 -4 51 -17
66 -28 32 -23 54 -28 24 -5 -10 8 -14 15 -7 15 6 0 15 -4 18 -10 3 -5 19 -10
35 -10 16 0 32 -5 35 -10 4 -6 24 -18 45 -26 21 -9 41 -22 44 -30 8 -20 -7
-17 -32 6 -22 20 -42 26 -42 12 0 -12 63 -36 90 -33 20 1 22 -1 10 -9 -15 -10
-8 -14 22 -11 33 4 93 -19 106 -39 16 -26 2 -26 -26 0 -22 20 -42 26 -42 12 0
-12 63 -36 90 -33 20 1 22 -1 10 -9 -16 -10 -9 -13 27 -10 25 2 119 -37 110
-46 -8 -8 -47 6 -47 17 0 5 -7 9 -15 9 -8 0 -15 -4 -15 -10 0 -5 7 -10 15 -10
8 0 15 -4 15 -8 0 -13 63 -35 92 -33 31 2 118 -33 118 -48 0 -5 -6 -12 -12
-15 -7 -2 -2 -4 12 -3 16 1 25 -3 25 -13 0 -11 12 -15 45 -15 47 0 108 -24 63
-25 -12 0 -23 5 -25 12 -3 7 -12 9 -23 4 -17 -6 -12 -12 30 -36 28 -16 56 -30
63 -30 6 0 12 -7 12 -15 0 -10 10 -15 28 -15 15 0 47 -11 71 -25 23 -14 51
-25 61 -25 9 0 29 -9 43 -20 22 -17 1484 -752 1677 -843 36 -17 74 -35 85 -41
62 -31 113 -54 135 -59 14 -3 35 -14 46 -24 48 -43 98 -61 141 -54 33 6 40 5
36 -6 -3 -7 -13 -13 -22 -14 -12 0 -11 -2 4 -9 11 -4 34 -5 50 -2 27 5 29 4
16 -11 -9 -11 -10 -17 -2 -17 6 0 11 5 11 11 0 6 6 9 14 6 7 -3 19 0 25 6 8 8
16 6 30 -7 11 -10 25 -15 30 -11 6 3 21 -1 33 -9 12 -9 30 -16 40 -16 10 0 18
-4 18 -10 0 -5 -6 -10 -13 -10 -7 0 -18 -9 -25 -20 -7 -12 -8 -20 -2 -20 5 0
10 5 10 10 0 6 5 10 10 10 6 0 10 -7 10 -15 0 -17 27 -19 66 -5 19 8 30 8 38
0 5 -5 20 -10 33 -10 13 0 23 -4 23 -8 0 -5 10 -14 23 -21 21 -11 20 -11 -9
-7 -22 4 -33 0 -42 -15 -7 -11 -8 -19 -2 -19 5 0 10 5 10 10 0 6 5 10 10 10 6
0 10 -7 10 -15 0 -12 10 -15 44 -13 32 2 42 7 38 16 -4 12 -1 12 16 1 24 -15
12 -29 -25 -29 -14 0 -23 -6 -23 -15 0 -8 2 -15 4 -15 2 0 12 -3 22 -7 10 -4
15 -2 11 4 -3 5 10 17 30 27 30 14 37 15 47 3 6 -8 18 -17 26 -20 10 -4 8 -6
-7 -6 -12 -1 -23 3 -25 9 -2 6 -15 6 -33 2 l-30 -8 33 -7 c17 -4 32 -12 32
-18 0 -7 -10 -9 -27 -5 -27 7 -27 7 -7 -8 16 -11 30 -13 63 -5 23 5 46 7 52 4
5 -3 6 1 2 10 -5 15 -3 15 15 4 24 -15 12 -29 -25 -29 -13 0 -23 -6 -23 -14 0
-15 34 -27 65 -22 11 2 14 1 8 -1 -20 -7 -16 -19 12 -37 24 -16 25 -16 23 6 0
13 1 30 3 38 4 16 -9 17 -58 6 -23 -5 -21 -2 11 15 34 18 40 19 48 6 4 -9 23
-19 41 -23 17 -3 42 -15 55 -25 22 -17 22 -18 2 -24 -11 -3 -20 -11 -20 -16 0
-12 6 -12 42 7 28 15 32 15 40 0 5 -9 17 -16 26 -17 11 0 12 -2 4 -6 -7 -3
-18 0 -25 6 -9 7 -27 6 -60 -2 l-47 -12 58 -29 c31 -16 77 -40 102 -53 119
-62 257 -127 273 -128 11 -1 22 -7 26 -13 11 -18 124 -73 137 -68 18 7 24 -5
13 -26 -5 -10 -15 -15 -21 -12 -6 4 -8 3 -5 -3 8 -13 -136 -152 -270 -259
-929 -748 -2554 -1338 -4493 -1633 -1592 -242 -3378 -278 -5040 -101 -800 85
-1516 209 -2220 385 -2074 518 -3480 1372 -3855 2343 -65 170 -86 276 -92 472
-6 192 5 288 53 454 115 403 444 822 939 1193 725 544 1848 1008 3186 1316
132 30 149 32 173 20 15 -8 35 -12 44 -10 12 3 11 5 -5 6 -16 1 -21 6 -17 16
4 8 13 15 21 15 8 0 11 -4 8 -10 -3 -5 -2 -10 4 -10 5 0 11 5 13 10 2 6 17 13
33 15 23 4 27 3 15 -5 -13 -9 -12 -11 5 -8 19 3 55 -23 55 -40 0 -19 53 -57
138 -97 51 -25 100 -45 108 -45 8 0 14 -4 14 -8 0 -4 20 -18 45 -30 56 -27 60
-52 9 -52 -19 0 -42 7 -51 16 -11 10 -19 12 -26 5 -7 -7 -15 -5 -24 7 -8 9
-12 11 -8 5 3 -7 0 -13 -7 -13 -9 0 -9 -3 2 -10 8 -5 27 -10 42 -10 15 0 30
-5 33 -10 4 -6 18 -9 33 -9 25 2 102 -24 102 -34 0 -6 -42 -1 -72 8 l-23 7 24
-18 c17 -12 45 -18 90 -19 59 -2 76 -8 161 -54 52 -28 100 -58 106 -66 6 -8
22 -15 35 -15 21 -1 19 -3 -10 -16 -19 -8 -41 -12 -48 -10 -7 3 -13 -1 -13 -9
0 -17 37 -39 42 -26 7 21 32 15 37 -8 4 -16 19 -30 40 -38 31 -13 32 -13 26 7
-5 15 -3 19 9 14 9 -3 16 -10 16 -15 0 -5 11 -9 25 -9 14 0 25 -5 25 -11 0
-13 55 -69 68 -69 6 0 13 -6 16 -12 4 -7 4 -3 2 9 -2 13 0 26 5 29 5 3 9 -7 9
-22 0 -27 1 -27 15 -8 12 16 14 87 15 455 l0 436 123 16 c459 62 1238 135
1350 126 25 -2 43 -1 40 4 -8 13 15 7 31 -8z m1476 -735 c0 -5 -7 -7 -15 -4
-8 4 -15 8 -15 10 0 2 7 4 15 4 8 0 15 -4 15 -10z m160 -80 c0 -5 -7 -7 -15
-4 -8 4 -15 8 -15 10 0 2 7 4 15 4 8 0 15 -4 15 -10z m160 -80 c0 -5 -7 -7
-15 -4 -8 4 -15 8 -15 10 0 2 7 4 15 4 8 0 15 -4 15 -10z m565 -276 c19 -16
19 -16 -5 -9 -31 9 -50 25 -29 25 7 0 23 -8 34 -16z m232 -120 c-3 -3 -12 -4
-19 -1 -8 3 -5 6 6 6 11 1 17 -2 13 -5z m1043 -530 c0 -2 -7 -4 -15 -4 -8 0
-15 4 -15 10 0 5 7 7 15 4 8 -4 15 -8 15 -10z m767 -380 c-3 -3 -12 -4 -19 -1
-8 3 -5 6 6 6 11 1 17 -2 13 -5z m50 -20 c-3 -3 -12 -4 -19 -1 -8 3 -5 6 6 6
11 1 17 -2 13 -5z m433 -264 c0 -5 -4 -10 -10 -10 -5 0 -10 5 -10 10 0 6 5 10
10 10 6 0 10 -4 10 -10z m2527 -1266 c-3 -3 -12 -4 -19 -1 -8 3 -5 6 6 6 11 1
17 -2 13 -5z m43 -14 c8 -5 12 -12 9 -15 -8 -8 -39 5 -39 16 0 11 11 11 30 -1z
m1049 -484 c19 -11 21 -14 7 -19 -15 -6 -23 -5 -63 9 -16 6 -16 7 2 14 27 11
26 11 54 -4z m77 -41 l29 -15 -27 2 c-15 1 -24 6 -21 11 2 4 -8 5 -24 2 -23
-4 -24 -4 -8 4 11 5 21 10 21 10 1 1 15 -6 30 -14z m76 -28 c7 -8 20 -16 28
-20 13 -5 13 -6 0 -6 -8 -1 -28 8 -45 19 -20 13 -25 20 -13 20 9 0 23 -6 30
-13z m308 -157 c0 -5 -5 -10 -11 -10 -5 0 -7 -6 -3 -12 4 -7 3 -9 -1 -5 -15
13 -14 37 1 37 8 0 14 -4 14 -10z"/>
<path d="M23540 34361 c0 -6 4 -12 8 -15 5 -3 9 1 9 9 0 8 -4 15 -9 15 -4 0
-8 -4 -8 -9z"/>
<path d="M9867 31465 c-3 -7 0 -12 8 -11 22 3 27 13 11 19 -8 3 -17 0 -19 -8z"/>
<path d="M24148 16163 c7 -3 16 -2 19 1 4 3 -2 6 -13 5 -11 0 -14 -3 -6 -6z"/>
<path d="M21114 16024 c2 -12 13 -18 34 -20 19 -1 30 2 26 7 -3 6 -11 8 -17 6
-7 -2 -20 2 -29 10 -15 13 -16 13 -14 -3z"/>
<path d="M24225 16030 c3 -5 14 -10 23 -10 15 0 15 2 2 10 -20 13 -33 13 -25
0z"/>
<path d="M24378 15953 c7 -3 16 -2 19 1 4 3 -2 6 -13 5 -11 0 -14 -3 -6 -6z"/>
<path d="M24448 15928 c5 -5 16 -8 23 -6 8 3 3 7 -10 11 -17 4 -21 3 -13 -5z"/>
<path d="M24550 15865 c7 -8 17 -12 22 -9 6 4 5 10 -3 15 -22 14 -33 10 -19
-6z"/>
<path d="M21327 15841 c-15 -6 -16 -9 -5 -17 32 -25 38 -25 38 0 0 27 -4 29
-33 17z"/>
<path d="M24603 15843 c9 -2 23 -2 30 0 6 3 -1 5 -18 5 -16 0 -22 -2 -12 -5z"/>
<path d="M24710 15800 c-8 -5 -13 -10 -10 -11 33 -6 42 -9 56 -23 17 -18 44
-21 44 -6 0 6 -7 10 -15 10 -8 0 -23 9 -32 20 -20 23 -22 23 -43 10z"/>
<path d="M24950 15760 c8 -5 20 -10 25 -10 6 0 3 5 -5 10 -8 5 -19 10 -25 10
-5 0 -3 -5 5 -10z"/>
<path d="M25010 15740 c0 -5 7 -10 15 -10 8 0 15 5 15 10 0 6 -7 10 -15 10 -8
0 -15 -4 -15 -10z"/>
<path d="M24870 15705 c7 -8 18 -15 24 -15 15 0 119 -49 126 -59 7 -11 71 -41
87 -41 27 0 12 17 -27 30 -40 13 -74 40 -51 40 6 0 11 5 11 10 0 6 -16 10 -35
10 -19 0 -57 9 -85 20 -61 24 -66 25 -50 5z"/>
<path d="M21650 15645 c7 -8 16 -15 21 -15 5 0 9 7 9 15 0 9 -9 15 -21 15 -18
0 -19 -2 -9 -15z"/>
<path d="M25260 15611 c0 -11 31 -24 39 -16 3 3 -1 10 -9 15 -19 12 -30 12
-30 1z"/>
<path d="M21670 15600 c8 -5 22 -9 30 -9 10 0 8 3 -5 9 -27 12 -43 12 -25 0z"/>
<path d="M25172 15571 c-11 -7 -10 -10 3 -15 23 -9 25 -8 25 9 0 17 -9 19 -28
6z"/>
<path d="M21804 15557 c5 -32 36 -52 36 -22 0 8 -9 19 -19 25 -14 7 -19 6 -17
-3z"/>
<path d="M25420 15531 c0 -11 31 -24 39 -16 3 3 -1 10 -9 15 -19 12 -30 12
-30 1z"/>
<path d="M25255 15520 c3 -5 10 -10 16 -10 5 0 9 5 9 10 0 6 -7 10 -16 10 -8
0 -12 -4 -9 -10z"/>
<path d="M25580 15451 c0 -11 31 -24 39 -16 3 3 -1 10 -9 15 -19 12 -30 12
-30 1z"/>
<path d="M25740 15371 c0 -11 31 -24 39 -16 3 3 -1 10 -9 15 -19 12 -30 12
-30 1z"/>
<path d="M27265 14560 c3 -5 8 -10 11 -10 2 0 4 5 4 10 0 6 -5 10 -11 10 -5 0
-7 -4 -4 -10z"/>
<path d="M28145 14120 c3 -5 8 -10 11 -10 2 0 4 5 4 10 0 6 -5 10 -11 10 -5 0
-7 -4 -4 -10z"/>
<path d="M28690 13851 c0 -5 7 -11 15 -15 9 -3 15 0 15 9 0 8 -7 15 -15 15 -8
0 -15 -4 -15 -9z"/>
<path d="M31360 12523 c0 -4 12 -16 26 -26 24 -18 26 -18 44 -2 18 16 18 16
13 -4 -6 -24 4 -26 31 -6 26 19 20 23 -45 31 -29 3 -57 8 -61 11 -5 2 -8 1 -8
-4z"/>
<path d="M31570 12415 c0 -8 4 -15 9 -15 5 0 18 -3 28 -6 15 -5 16 -4 3 5 -13
10 -13 12 0 21 12 8 9 10 -12 10 -18 0 -28 -5 -28 -15z"/>
<path d="M9625 31370 c3 -5 11 -10 16 -10 6 0 7 5 4 10 -3 6 -11 10 -16 10 -6
0 -7 -4 -4 -10z"/>
<path d="M9787 31254 c6 -17 8 -17 21 -1 8 10 6 13 -8 14 -13 1 -17 -3 -13
-13z"/>
<path d="M9544 31248 c-4 -7 -3 -8 4 -4 11 7 17 -6 13 -27 -1 -5 3 -6 9 -2 7
4 7 12 0 26 -12 22 -16 23 -26 7z"/>
<path d="M9393 30855 c0 -8 7 -11 16 -7 12 4 11 0 -4 -19 l-20 -24 28 24 c15
14 27 27 27 29 0 3 -3 2 -6 -1 -4 -3 -14 -2 -24 3 -12 6 -17 5 -17 -5z"/>
<path d="M9336 30642 c-2 -4 -1 -14 4 -22 7 -11 9 -9 7 8 -1 24 -3 26 -11 14z"/>
<path d="M9331 30578 c5 -10 11 -18 12 -18 2 0 3 8 3 18 0 10 -6 19 -13 19 -8
0 -9 -6 -2 -19z"/>
<path d="M9280 30581 c0 -6 4 -12 8 -15 5 -3 9 1 9 9 0 8 -4 15 -9 15 -4 0 -8
-4 -8 -9z"/>
<path d="M9480 30560 l-45 -7 53 -1 c33 -1 51 2 47 8 -3 6 -7 9 -8 8 -1 0 -22
-4 -47 -8z"/>
<path d="M9451 30434 c0 -11 3 -14 6 -6 3 7 2 16 -1 19 -3 4 -6 -2 -5 -13z"/>
<path d="M9486 30433 c-6 -14 -5 -15 5 -6 7 7 10 15 7 18 -3 3 -9 -2 -12 -12z"/>
<path d="M9266 30427 c3 -10 9 -15 12 -12 3 3 0 11 -7 18 -10 9 -11 8 -5 -6z"/>
<path d="M41316 21807 c3 -10 9 -15 12 -12 3 3 0 11 -7 18 -10 9 -11 8 -5 -6z"/>
<path d="M41215 21530 c-17 -7 -17 -9 -2 -9 9 -1 17 -4 17 -7 0 -4 -8 -13 -17
-21 -10 -8 -13 -12 -6 -9 6 4 14 0 16 -6 4 -10 6 -9 6 1 1 8 8 19 18 26 9 7
13 17 9 23 -8 14 -13 14 -41 2z"/>
<path d="M41251 21486 c-9 -11 -9 -16 1 -22 7 -4 10 -4 6 1 -4 4 -3 14 3 22 6
7 9 13 6 13 -2 0 -10 -6 -16 -14z"/>
<path d="M41015 21430 c-3 -5 -1 -10 4 -10 6 0 11 5 11 10 0 6 -2 10 -4 10 -3
0 -8 -4 -11 -10z"/>
<path d="M41207 21401 c-9 -12 -9 -13 1 -7 8 5 16 -1 22 -16 11 -23 11 -23 6
0 -2 12 0 22 5 22 5 0 9 4 9 8 0 14 -30 10 -43 -7z"/>
<path d="M41015 21400 c3 -5 8 -10 11 -10 2 0 4 5 4 10 0 6 -5 10 -11 10 -5 0
-7 -4 -4 -10z"/>
<path d="M41205 21360 c-3 -5 -1 -10 4 -10 6 0 11 5 11 10 0 6 -2 10 -4 10 -3
0 -8 -4 -11 -10z"/>
<path d="M41006 21344 c-4 -9 -4 -19 -1 -22 2 -3 7 3 11 12 4 9 4 19 1 22 -2
3 -7 -3 -11 -12z"/>
<path d="M41200 21336 c0 -2 7 -7 16 -10 8 -3 12 -2 9 4 -6 10 -25 14 -25 6z"/>
<path d="M40978 21283 c7 -3 16 -2 19 1 4 3 -2 6 -13 5 -11 0 -14 -3 -6 -6z"/>
<path d="M41100 21116 c0 -2 9 -6 20 -9 11 -3 18 -1 14 4 -5 9 -34 13 -34 5z"/>
</g>
</svg>
