<?xml version="1.0" standalone="no"?>
<!DOCTYPE svg PUBLIC "-//W3C//DTD SVG 20010904//EN"
 "http://www.w3.org/TR/2001/REC-SVG-20010904/DTD/svg10.dtd">
<svg version="1.0" xmlns="http://www.w3.org/2000/svg"
 width="1024.000000pt" height="1024.000000pt" viewBox="0 0 1024.000000 1024.000000"
 preserveAspectRatio="xMidYMid meet">

<g transform="translate(0.000000,1024.000000) scale(0.100000,-0.100000)"
fill="#000000" stroke="none">
<path d="M5092 10223 c-18 -9 -44 -30 -56 -47 -16 -21 -71 -197 -172 -549 -82
-285 -151 -522 -154 -526 -3 -5 -234 -92 -515 -195 -280 -103 -524 -196 -542
-207 -46 -29 -77 -98 -68 -155 7 -51 48 -105 95 -124 l30 -12 -25 -20 c-24
-19 -25 -24 -25 -139 0 -106 2 -121 20 -139 21 -21 69 -26 100 -10 10 5 23 24
29 41 14 39 14 179 1 213 -5 14 -8 26 -7 26 7 0 839 -258 842 -261 5 -6 -35
-253 -43 -261 -4 -3 -416 -124 -917 -268 -1133 -326 -1041 -297 -1080 -331
-42 -37 -61 -100 -46 -155 12 -46 63 -100 105 -110 l28 -7 -26 -16 c-36 -22
-49 -71 -45 -174 5 -102 23 -131 83 -131 65 0 76 21 76 151 0 63 -5 123 -10
134 -6 10 -7 19 -3 19 22 0 1649 -335 1656 -341 7 -5 -18 -478 -26 -485 -1 -1
-310 -158 -687 -349 -377 -191 -697 -359 -713 -373 -35 -34 -51 -91 -38 -138
14 -50 55 -101 95 -115 l34 -12 -29 -24 c-29 -24 -29 -26 -29 -128 0 -57 5
-115 11 -129 23 -50 103 -57 134 -13 18 25 21 217 5 248 -6 10 -7 19 -3 19 31
0 1073 -267 1073 -275 1 -28 -1146 -4308 -1155 -4310 -168 -45 -284 -107 -337
-179 l-29 -41 -194 -5 c-175 -5 -196 -7 -221 -26 -52 -39 -69 -71 -69 -133 0
-48 5 -64 29 -95 54 -72 -194 -66 2860 -64 l2765 3 27 21 c44 32 66 68 71 116
7 58 -15 108 -63 144 -35 27 -44 29 -153 33 l-116 3 -30 42 c-62 84 -197 153
-356 179 l-72 12 -568 2140 c-313 1177 -568 2147 -569 2155 0 12 114 45 518
148 284 73 528 135 541 138 21 6 22 5 12 -14 -6 -12 -11 -69 -11 -131 0 -106
1 -110 26 -130 33 -26 75 -27 105 -2 22 18 24 28 27 128 4 105 3 111 -22 140
-30 36 -32 43 -11 43 27 0 94 70 105 111 14 51 -3 119 -38 152 -15 14 -336
181 -714 372 -379 191 -688 350 -688 353 0 4 -9 113 -20 242 -11 129 -20 236
-20 237 0 2 82 19 665 138 308 63 659 134 780 159 121 25 224 46 228 46 5 0 1
-10 -7 -22 -22 -31 -23 -224 -1 -255 31 -44 111 -37 134 13 14 33 14 199 -1
227 -6 12 -20 28 -30 35 -18 13 -17 15 22 34 55 28 83 69 88 135 4 45 0 59
-21 92 -14 21 -40 45 -59 54 -18 8 -467 140 -998 292 -531 153 -966 278 -966
279 -3 2 -42 261 -40 263 1 1 186 59 411 128 226 69 415 127 422 130 9 3 9 -4
1 -26 -5 -16 -8 -71 -6 -123 4 -112 18 -136 80 -136 67 0 78 21 78 155 0 109
-1 117 -24 140 l-24 24 30 12 c77 32 113 150 66 218 -12 19 -34 42 -48 52 -14
11 -254 100 -535 200 -280 100 -514 185 -519 190 -5 4 -73 239 -152 522 -78
283 -147 523 -152 533 -18 34 -68 74 -103 84 -47 14 -69 12 -107 -7z m151
-1006 c64 -220 78 -282 75 -326 l-3 -54 -77 -54 -78 -55 -80 57 -80 56 0 52
c-1 36 23 137 77 324 43 150 80 273 83 273 3 0 40 -123 83 -273z m-553 -622
c0 -80 -2 -145 -5 -145 -10 0 -427 129 -432 133 -2 3 70 30 159 62 90 32 183
66 208 76 73 29 70 35 70 -126z m1149 74 c108 -39 202 -75 210 -79 10 -5 -33
-23 -120 -50 -264 -82 -290 -90 -295 -90 -2 0 -4 65 -4 145 0 80 3 145 6 145
4 0 95 -32 203 -71z m-598 -181 l77 -53 5 -95 c4 -52 9 -115 12 -140 l6 -45
-90 -53 -91 -53 -91 53 -90 53 6 45 c3 25 8 88 12 140 l6 95 76 52 c42 29 78
53 81 53 2 0 39 -24 81 -52z m-260 -518 c26 -14 24 -25 -6 -38 -24 -11 -25
-10 -25 18 0 33 3 35 31 20z m389 -20 c0 -29 -2 -30 -22 -19 -33 17 -33 18
-12 34 28 21 34 18 34 -15z m-78 -167 c60 -36 111 -69 113 -74 3 -4 8 -34 11
-66 l6 -58 -131 -130 -131 -130 -130 130 c-119 119 -130 133 -129 165 3 85 6
89 134 167 68 41 126 71 135 68 8 -3 63 -36 122 -72z m-732 -266 c0 -2 -18
-129 -40 -282 -22 -153 -40 -279 -40 -280 0 -2 -241 46 -536 106 -295 60 -541
109 -547 109 -34 0 58 29 575 180 596 175 588 172 588 167z m1785 -167 c512
-148 610 -179 579 -180 -5 0 -252 -49 -547 -109 -295 -60 -537 -108 -537 -106
0 1 -18 127 -40 280 -22 153 -40 280 -40 283 0 2 6 2 13 -1 6 -2 264 -77 572
-167z m-1418 -251 c-67 -64 -123 -116 -124 -115 -1 0 13 95 30 209 l31 208 93
-92 92 -93 -122 -117z m533 280 c0 -10 43 -305 56 -379 5 -33 -1 -29 -120 90
l-126 125 87 87 c86 86 103 99 103 77z m-101 -473 l193 -193 -93 -51 c-52 -27
-140 -74 -196 -103 l-103 -54 -77 41 c-43 22 -131 69 -197 104 l-118 63 193
193 c107 107 196 194 199 194 3 0 92 -87 199 -194z m-482 -434 l113 -57 -131
-74 c-72 -40 -132 -71 -134 -69 -9 9 19 258 29 257 6 0 62 -26 123 -57z m693
50 c0 -4 7 -61 15 -127 8 -65 13 -121 11 -123 -2 -2 -63 28 -136 66 l-132 70
114 61 c115 62 128 67 128 53z m-175 -325 l220 -116 2 -43 c2 -41 0 -45 -45
-78 -26 -20 -129 -98 -229 -174 l-182 -138 -230 174 -230 173 -1 41 0 42 228
120 c125 66 232 119 237 118 6 -2 109 -56 230 -119z m-522 -527 c86 -68 154
-127 150 -131 -13 -13 -388 -297 -389 -296 -1 2 53 556 55 566 1 4 -11 14 184
-139z m788 -153 c14 -149 25 -274 23 -276 -2 -2 -91 65 -199 149 -108 84 -192
156 -188 160 49 44 327 249 331 245 3 -3 18 -128 33 -278z m-1304 216 c-3 -21
-16 -152 -28 -292 -14 -148 -27 -255 -33 -257 -6 -2 -175 38 -375 89 -251 64
-360 97 -350 103 28 18 774 393 783 394 5 0 6 -17 3 -37z m1998 -160 c217
-109 395 -200 395 -203 0 -8 -731 -192 -737 -186 -3 3 -16 117 -29 253 -13
137 -25 267 -28 291 -3 23 -3 42 -1 42 3 0 183 -89 400 -197z m-953 -310 l231
-178 -236 -3 c-130 -1 -344 -1 -474 0 l-236 3 229 177 c126 97 235 177 242
177 7 1 117 -79 244 -176z m318 -349 c0 -11 -562 -874 -569 -874 -7 1 -551
863 -551 874 0 3 252 6 560 6 308 0 560 -3 560 -6z m-921 -622 c139 -222 251
-410 249 -417 -4 -16 -1242 -1944 -1246 -1940 -2 1 163 626 365 1388 202 762
371 1383 374 1379 4 -4 120 -189 258 -410z m1370 -1018 c210 -790 381 -1437
379 -1439 -5 -6 -1283 2038 -1283 2053 0 15 506 821 516 822 3 0 178 -646 388
-1436z m-249 -762 c419 -667 764 -1220 767 -1228 4 -12 -196 -14 -1526 -14
-1218 0 -1531 3 -1531 13 0 6 8 40 18 73 14 50 156 279 757 1217 407 636 743
1155 747 1154 4 -1 349 -548 768 -1215z m899 -1687 c43 -166 70 -289 65 -294
-5 -4 -31 -16 -59 -26 -74 -27 -115 -56 -177 -124 l-55 -61 -1396 0 -1395 0
-22 36 c-44 71 -173 148 -293 174 -40 9 -56 17 -53 26 3 8 38 135 77 284 l72
270 1581 0 1581 0 74 -285z"/>
</g>
</svg>
