<?xml version="1.0" standalone="no"?>
<!DOCTYPE svg PUBLIC "-//W3C//DTD SVG 20010904//EN"
 "http://www.w3.org/TR/2001/REC-SVG-20010904/DTD/svg10.dtd">
<svg version="1.0" xmlns="http://www.w3.org/2000/svg"
 width="8000.000000pt" height="8000.000000pt" viewBox="0 0 8000.000000 8000.000000"
 preserveAspectRatio="xMidYMid meet">

<g transform="translate(0.000000,8000.000000) scale(0.100000,-0.100000)"
fill="#000000" stroke="none">
<path d="M39740 72860 c-985 -68 -1884 -467 -2579 -1145 -180 -175 -295 -307
-435 -494 -375 -504 -634 -1103 -740 -1711 -52 -300 -66 -495 -66 -916 l0
-311 -82 -12 c-549 -83 -1430 -261 -2083 -421 -3206 -782 -6322 -2216 -8988
-4138 l-158 -114 -237 234 c-267 263 -381 364 -570 505 -342 256 -750 470
-1148 601 -842 279 -1749 278 -2586 -2 -787 -262 -1467 -753 -1970 -1422
-1025 -1360 -1086 -3248 -151 -4673 187 -285 291 -410 625 -746 142 -144 258
-264 258 -268 0 -4 -67 -100 -148 -214 -2320 -3252 -3854 -6968 -4502 -10904
l-33 -197 -411 -5 c-435 -5 -549 -14 -821 -63 -673 -121 -1284 -401 -1840
-843 -160 -127 -476 -444 -609 -611 -124 -155 -305 -424 -394 -585 -521 -942
-647 -2068 -348 -3108 400 -1390 1529 -2478 2930 -2822 372 -91 581 -114 1102
-122 l391 -6 28 -166 c648 -3955 2174 -7653 4513 -10939 l144 -202 -248 -253
c-137 -139 -295 -309 -352 -377 -767 -929 -1083 -2094 -891 -3289 62 -388 191
-786 371 -1146 574 -1148 1649 -1959 2901 -2190 290 -53 368 -59 747 -59 314
-1 374 2 520 22 775 106 1439 389 2040 868 80 64 246 218 407 377 162 161 277
267 285 264 8 -2 79 -52 158 -109 545 -392 1224 -837 1840 -1205 2778 -1658
5840 -2784 9027 -3317 149 -26 274 -46 277 -46 3 0 6 -138 6 -307 0 -347 11
-539 41 -758 153 -1118 761 -2117 1689 -2775 477 -338 1043 -575 1620 -679
395 -71 864 -84 1243 -35 528 68 1043 238 1492 492 143 81 417 267 555 378
169 135 485 450 611 609 443 558 723 1168 843 1835 51 282 58 371 63 817 l5
421 82 12 c602 87 1708 319 2441 511 3109 815 5982 2158 8578 4011 l209 149
236 -233 c257 -253 395 -376 566 -503 362 -269 729 -460 1151 -600 690 -229
1386 -272 2100 -130 1610 320 2874 1587 3194 3200 197 995 17 2041 -501 2898
-193 319 -371 540 -721 894 l-249 251 150 209 c1560 2180 2813 4679 3615 7208
400 1261 719 2597 903 3783 l18 112 320 0 c349 0 521 9 750 41 448 61 868 193
1276 400 784 398 1417 1034 1810 1818 385 769 515 1654 370 2513 -217 1283
-1048 2394 -2225 2973 -411 202 -802 319 -1290 386 -126 18 -220 22 -581 26
l-430 5 -23 147 c-34 223 -144 818 -206 1116 -584 2807 -1615 5471 -3073 7945
-372 632 -891 1424 -1314 2009 l-68 94 233 236 c245 249 365 383 488 547 756
999 1010 2284 694 3499 -145 555 -399 1058 -774 1530 -126 159 -453 485 -621
619 -610 487 -1306 774 -2110 872 -203 25 -675 25 -885 0 -825 -97 -1546 -405
-2182 -931 -59 -49 -223 -203 -364 -342 l-256 -253 -64 47 c-35 26 -185 132
-334 236 -1483 1039 -3072 1923 -4734 2632 -1939 826 -3976 1415 -6066 1753
l-110 18 -6 414 c-7 424 -14 529 -59 795 -65 383 -217 832 -396 1173 -642
1219 -1812 2022 -3169 2177 -168 19 -542 27 -715 15z m690 -10310 c715 -17
1297 -57 1960 -136 4363 -515 8459 -2466 11612 -5532 2079 -2021 3651 -4371
4713 -7042 797 -2004 1248 -4070 1381 -6320 35 -589 29 -1707 -11 -2355 -334
-5285 -2702 -10167 -6655 -13720 -1630 -1465 -3531 -2675 -5555 -3538 -811
-345 -1695 -652 -2555 -888 -1324 -363 -2699 -590 -4080 -674 -825 -50 -1715
-50 -2515 0 -4438 278 -8640 2013 -11992 4953 -548 480 -1195 1119 -1686 1664
-3024 3355 -4825 7603 -5126 12093 -57 853 -61 1779 -11 2605 214 3481 1306
6799 3203 9725 1179 1819 2696 3482 4412 4840 3144 2487 6950 3975 10935 4274
724 55 1249 68 1970 51z"/>
</g>
</svg>
